<?xml version="1.0" encoding="utf-8"?>
<!-- Generator: Adobe Illustrator 23.0.4, SVG Export Plug-In . SVG Version: 6.00 Build 0)  -->
<svg version="1.1" xmlns="http://www.w3.org/2000/svg" xmlns:xlink="http://www.w3.org/1999/xlink" x="0px" y="0px"
	 viewBox="0 0 231.84 143.52" style="enable-background:new 0 0 231.84 143.52;" xml:space="preserve">
<style type="text/css">
	.st0{display:none;}
	.st1{display:inline;fill:#B0D5F0;}
	.st2{clip-path:url(#SVGID_2_);}
	.st3{clip-path:url(#SVGID_4_);fill:none;stroke:#3A7E7F;stroke-width:0.9;stroke-miterlimit:10;}
	.st4{font-family:'OptimaLTStd';}
	.st5{font-size:14.6666px;}
	.st6{font-size:14.6667px;}
	.st7{font-size:14.6668px;}
	.st8{clip-path:url(#SVGID_6_);}
	.st9{font-size:14.6665px;}
</style>
<g id="Background" class="st0">
	<rect x="-467.16" y="-262.92" class="st1" width="1170" height="666"/>
</g>
<g id="Vector">
	<g>
		<g>
			<defs>
				<rect id="SVGID_1_" x="-3.97" y="-2.45" width="239.78" height="148.43"/>
			</defs>
			<clipPath id="SVGID_2_">
				<use xlink:href="#SVGID_1_"  style="overflow:visible;"/>
			</clipPath>
			<g class="st2">
				<defs>
					<rect id="SVGID_3_" x="-5.64" y="-2.45" width="242.88" height="148.43"/>
				</defs>
				<clipPath id="SVGID_4_">
					<use xlink:href="#SVGID_3_"  style="overflow:visible;"/>
				</clipPath>
				<path class="st3" d="M75.32,4.29c37.26,0,67.47,30.21,67.47,67.47c0,37.26-30.21,67.47-67.47,67.47
					c-18.87,0-35.94-7.75-48.18-20.24"/>
				<path class="st3" d="M169.77,137.88c-4.36,0.88-8.87,1.35-13.5,1.35c-37.26,0-67.47-30.21-67.47-67.47
					c0-37.26,30.21-67.47,67.47-67.47c18.63,0,35.5,7.55,47.71,19.76"/>
			</g>
			<g class="st2">
				<text transform="matrix(-0.5397 -0.8419 0.8419 -0.5397 25.3121 109.5691)" class="st4 st5">A</text>
			</g>
			<g class="st2">
				<text transform="matrix(-0.391 -0.9204 0.9204 -0.391 18.6165 97.9818)" class="st4 st5"> </text>
			</g>
			<g class="st2">
				<text transform="matrix(-0.2355 -0.9719 0.9719 -0.2355 15.6849 90.8499)" class="st4 st6">B</text>
			</g>
			<g class="st2">
				<text transform="matrix(-0.0514 -0.9987 0.9987 -0.0514 13.1895 78.7227)" class="st4 st7">E</text>
			</g>
			<g class="st2">
				<text transform="matrix(0.1448 -0.9894 0.9894 0.1448 12.8007 67.4422)" class="st4 st5">A</text>
			</g>
			<g class="st2">
				<text transform="matrix(0.3568 -0.9342 0.9342 0.3568 14.9162 54.8176)" class="st4 st6">U</text>
			</g>
			<g class="st2">
				<text transform="matrix(0.5473 -0.837 0.837 0.5473 20.7838 41.0139)" class="st4 st7">T</text>
			</g>
			<g class="st2">
				<text transform="matrix(0.6721 -0.7405 0.7405 0.6721 27.7292 31.3202)" class="st4 st5">I</text>
			</g>
			<g class="st2">
				<text transform="matrix(0.7756 -0.6313 0.6313 0.7756 33.0345 25.6122)" class="st4 st5">F</text>
			</g>
			<g class="st2">
				<text transform="matrix(0.8876 -0.4606 0.4606 0.8876 41.5823 18.9214)" class="st4 st6">U</text>
			</g>
			<g class="st2">
				<defs>
					<rect id="SVGID_5_" x="-5.64" y="-2.45" width="242.88" height="148.43"/>
				</defs>
				<clipPath id="SVGID_6_">
					<use xlink:href="#SVGID_5_"  style="overflow:visible;"/>
				</clipPath>
				<g class="st8">
					<text transform="matrix(0.9628 -0.2702 0.2702 0.9628 54.9318 12.617)" class="st4 st9">L</text>
				</g>
			</g>
			<g class="st2">
				<text transform="matrix(0.5498 0.8353 -0.8353 0.5498 206.269 34.0935)" class="st4 st5">T</text>
			</g>
			<g class="st2">
				<text transform="matrix(0.3597 0.9331 -0.9331 0.3597 212.5497 43.9507)" class="st4 st6">H</text>
			</g>
			<g class="st2">
				<text transform="matrix(0.1479 0.989 -0.989 0.1479 217.3478 57.9868)" class="st4 st5">R</text>
			</g>
			<g class="st2">
				<text transform="matrix(-0.0395 0.9992 -0.9992 -0.0395 218.836 70.6336)" class="st4 st5">E</text>
			</g>
			<g class="st2">
				<text transform="matrix(-0.2158 0.9764 -0.9764 -0.2158 218.0653 81.7916)" class="st4 st6">S</text>
			</g>
			<g class="st2">
				<text transform="matrix(-0.4133 0.9106 -0.9106 -0.4133 215.5603 92.3818)" class="st4 st5">H</text>
			</g>
			<g class="st2">
				<text transform="matrix(-0.6202 0.7844 -0.7844 -0.6202 209.1177 105.6276)" class="st4 st6">O</text>
			</g>
			<g class="st2">
				<text transform="matrix(-0.7718 0.6359 -0.6359 -0.7718 198.7575 117.6492)" class="st4 st5">L</text>
			</g>
			<g class="st2">
				<text transform="matrix(-0.8848 0.466 -0.466 -0.8848 190.3592 124.3399)" class="st4 st5">D</text>
			</g>
		</g>
	</g>
</g>
</svg>
